# xmcd
#
# Track frame offsets:
#  150
#  26264
#  48942
#  63914
#  79053
#  93842
#  108929
#  129277
#  143847
#  160890
#  176725
#  193757
#  207722
#  224004
#  239786
#  260229
#  283139
#  303796
#  328143
#
# Disc length: 4555 seconds
#
# Revision: 1
# Processed by: cddbd v1.5.1PL0 Copyright (c) Steve Scherf et al.
# Submitted via: Collectorz.com Music Collector 6.9
#
DISCID=2011c913
DTITLE=Diverse kunstnere - Universal Music Sampler 2004/12
DYEAR=2004
DGENRE=HipHopPop'n'Rock
TTITLE0=Mark Knopfler - Boom, Like That
TTITLE1=Mark Knopfler - Trawlerman's Song
TTITLE2=The Killers - Somebody Told Me
TTITLE3=Stonebox - Divorce (What About the Music)
TTITLE4=Stonebox - My Name Is Music
TTITLE5=Marilyn Manson - Personal Jesus
TTITLE6=Ian Brown - Keep What Ya Got
TTITLE7=Ashlee Simpson - Pieces of Me
TTITLE8=Christina Milian - Whatever U Want
TTITLE9=Bryan Adams - Open Road
TTITLE10=Kristian Leontiou - Story of My Life
TTITLE11=Razorlight - Stumple and Fall
TTITLE12=Julia Maria - Must Talk
TTITLE13=Julia Maria - Like a Wave
TTITLE14=Julia Maria - Your Kiss Goodnight
TTITLE15=Mps Jazz Reworks
TTITLE16=Mps Jazz Reworks
TTITLE17=Ib Glindemann - Mølblues
TTITLE18=Ib Glindemann - Peanut Vendor
EXTD=
EXTT0=
EXTT1=
EXTT2=
EXTT3=
EXTT4=
EXTT5=
EXTT6=
EXTT7=
EXTT8=
EXTT9=
EXTT10=
EXTT11=
EXTT12=
EXTT13=
EXTT14=
EXTT15=
EXTT16=
EXTT17=
EXTT18=
PLAYORDER=
